<?xml version="1.0" encoding="UTF-8"?>
<svg width="377px" height="59px" viewBox="0 0 377 59" version="1.1" xmlns="http://www.w3.org/2000/svg" xmlns:xlink="http://www.w3.org/1999/xlink">
    <!-- Generator: Sketch 55 (78076) - https://sketchapp.com -->
    <title>Group 3</title>
    <desc>Created with Sketch.</desc>
    <g id="page" stroke="none" stroke-width="1" fill="none" fill-rule="evenodd">
        <g id="index-spec" transform="translate(-31.000000, -121.000000)">
            <g id="Group-9" transform="translate(0.000000, 101.000000)">
                <g id="Group-3" transform="translate(31.000000, 20.000000)">
                    <g id="niaidlogo">
                        <polygon id="Path" fill="#F24A16" points="87 19 87 39 83.2597122 39 73.3316547 26.2930246 73.3316547 39 69 39 69 19 72.7553957 19 82.6834532 31.7174646 82.6834532 19"></polygon>
                        <polygon id="Path" fill="#F24A16" points="92 39 96 39 96 19 92 19"></polygon>
                        <path d="M109.506646,24.0069571 L106.981329,30.5744408 L112.018671,30.5744408 L109.506646,24.0069571 Z M105.508228,34.2863106 L103.733861,39 L99,39 L107.140823,19 L111.859177,19 L120,39 L115.266139,39 L113.489557,34.2863106 L105.508228,34.2863106 L105.508228,34.2863106 Z" id="Shape" fill="#F24A16" fill-rule="nonzero"></path>
                        <polygon id="Path" fill="#F24A16" points="123 39 127 39 127 19 123 19"></polygon>
                        <path d="M137.36568,22.8638553 L137.36568,35.1511292 L140.554562,35.1511292 C142.236012,35.1511292 143.671662,34.5560313 144.863686,33.3658354 C146.053535,32.1756395 146.649547,30.7221449 146.649547,29.0074922 C146.649547,27.2906989 146.066586,25.839345 144.905015,24.6491491 C143.743444,23.4568126 142.292568,22.8638553 140.554562,22.8638553 L137.36568,22.8638553 L137.36568,22.8638553 Z M140.554562,19 C143.51287,19 145.992628,19.9654287 147.996012,21.9005673 C149.999396,23.8335652 151,26.2011131 151,28.9989297 C151,31.7988869 149.999396,34.1642941 147.996012,36.0994327 C145.992628,38.0324307 143.51287,39 140.554562,39 L133,39 L133,19 L140.554562,19 Z" id="Shape" fill="#F24A16" fill-rule="nonzero"></path>
                        <g id="Group">
                            <g id="Path">
                                <path d="M57.5861852,28.2478889 L53.0825185,28.2478889 C52.9208148,24.7100741 52.003037,21.3732963 50.4624815,18.4036296 L54.3477407,16.1616296 C54.87,15.8600741 55.0491852,15.1914074 54.7476296,14.6691481 C54.4460741,14.1468889 53.7774074,13.9633333 53.2551481,14.2714444 L49.3655185,16.5156296 C47.7157037,13.9436667 45.5895185,11.716963 43.104963,9.94696296 L45.5327037,6.16877778 C45.8582963,5.66181481 45.7118889,4.98440741 45.2049259,4.65881481 C44.6957778,4.33322222 44.0205556,4.47962963 43.694963,4.98659259 L41.265037,8.76696296 C38.055,6.90081481 34.3664074,5.79948148 30.4308889,5.61592593 L30.4308889,1.09259259 C30.4308889,0.489481481 29.9435926,3.19744231e-14 29.3382963,3.19744231e-14 C28.7351852,3.19744231e-14 28.2457037,0.489481481 28.2457037,1.09259259 L28.2457037,5.61592593 C24.3123704,5.79948148 20.6237778,6.90081481 17.4137407,8.76696296 L14.9838148,4.98659259 C14.6582222,4.47962963 13.983,4.33540741 13.4738519,4.65881481 C12.9668889,4.98440741 12.8204815,5.66181481 13.1460741,6.16877778 L15.576,9.94696296 C12.7877037,11.9311111 10.4495556,14.4965185 8.732,17.4705556 L4.73966667,15.4121111 C4.19992593,15.1324074 3.54655556,15.3487407 3.26903704,15.8819259 C2.99151852,16.4172963 3.2012963,17.0772222 3.73666667,17.3547407 L7.729,19.4131852 C6.48344444,22.1228148 5.7382963,25.1055926 5.59625926,28.2478889 L1.09259259,28.2478889 C0.489481481,28.2478889 1.39621648e-12,28.7373704 1.39621648e-12,29.3404815 C1.39621648e-12,29.9435926 0.489481481,30.4330741 1.09259259,30.4330741 L5.59625926,30.4330741 C5.75796296,33.9687037 6.67574074,37.3054815 8.2162963,40.272963 L4.32885185,42.5171481 C3.80659259,42.8187037 3.62740741,43.4873704 3.92896296,44.0096296 C4.13218519,44.3592593 4.4992963,44.5559259 4.87733333,44.5559259 C5.06307407,44.5559259 5.251,44.5078519 5.42144444,44.4095185 L9.31325926,42.160963 C10.9630741,44.7329259 13.0892593,46.9618148 15.576,48.7296296 L13.1460741,52.51 C12.8204815,53.016963 12.9668889,53.6943704 13.4738519,54.019963 C13.6574074,54.137963 13.8606296,54.1925926 14.0638519,54.1925926 C14.4244074,54.1925926 14.7762222,54.0155926 14.9838148,53.6921852 L17.4137407,49.9118148 C20.6215926,51.777963 24.3123704,52.8792963 28.2457037,53.0628519 L28.2457037,57.5861852 C28.2457037,58.1892963 28.7351852,58.6787778 29.3382963,58.6787778 C29.9435926,58.6787778 30.4308889,58.1892963 30.4308889,57.5861852 L30.4308889,53.0628519 C34.3664074,52.8792963 38.055,51.777963 41.265037,49.9096296 L43.694963,53.6921852 C43.9025556,54.0155926 44.2543704,54.1925926 44.6149259,54.1925926 C44.8181481,54.1925926 45.0213704,54.137963 45.2049259,54.019963 C45.7118889,53.6943704 45.8582963,53.016963 45.5327037,52.51 L43.104963,48.7296296 C45.8910741,46.7476667 48.2292222,44.1822593 49.9467778,41.206037 L53.9369259,43.2666667 C54.0986296,43.3497037 54.2690741,43.389037 54.4373333,43.389037 C54.8328519,43.389037 55.2152593,43.1727037 55.4097407,42.7968519 C55.6850741,42.2614815 55.4752963,41.6015556 54.9399259,41.324037 L50.9475926,39.2634074 C52.1953333,36.555963 52.9404815,33.5753704 53.0825185,30.4330741 L57.5861852,30.4330741 C58.1892963,30.4330741 58.6787778,29.9435926 58.6787778,29.3404815 C58.6787778,28.7373704 58.1892963,28.2478889 57.5861852,28.2478889" fill="#4A82C3"></path>
                                <polygon fill="#FFFFFF" points="27.6010741 15.7449148 17.7128926 21.4548037 22.5598519 22.7106296"></polygon>
                                <polygon fill="#FFFFFF" points="17.8505593 37.3054815 28.521037 43.4633333 28.5603704 35.8064444"></polygon>
                                <polygon fill="#FFFFFF" points="30.1599259 43.4611481 40.828 37.3032963 30.1992593 35.8086296"></polygon>
                                <polygon fill="#FFFFFF" points="41.9817778 34.7138519 41.9817778 22.8876296 37.0257778 24.1703333"></polygon>
                                <polygon fill="#FFFFFF" points="40.9678519 21.4554593 31.1039259 15.7608667 36.191037 22.690963"></polygon>
                                <polygon fill="#FFFFFF" points="16.6972185 22.8876296 16.6972185 34.7357037 21.7275148 24.19"></polygon>
                                <polygon fill="#FFFFFF" points="30.7018519 34.2243704 40.5941852 35.6163333 35.7998889 25.4093333"></polygon>
                                <polygon fill="#FFFFFF" points="24.3145556 24.4653333 29.3841852 33.2322963 34.4538148 24.4653333"></polygon>
                                <polygon fill="#FFFFFF" points="29.3448519 16.1312556 24.4981111 22.8242593 34.2571481 22.8242593"></polygon>
                                <polygon fill="#FFFFFF" points="18.0918037 35.6163333 28.0643333 34.2243704 22.9619259 25.4005926"></polygon>
                                <path d="M31.1017407,15.7597741 L29.9982222,14.2585519 C29.972,14.2214037 29.9326667,14.1995519 29.9020741,14.1667741 C29.8736667,14.1405519 29.854,14.1034037 29.819037,14.0771815 C29.8081111,14.0728111 29.7971852,14.0706259 29.7884444,14.0640704 C29.7294444,14.024737 29.6660741,14.0007 29.6005185,13.9788481 C29.5655556,13.9679222 29.534963,13.9504407 29.5021852,13.9438852 C29.4278889,13.9285889 29.3535926,13.9307741 29.2771111,13.9373296 C29.2487037,13.9395148 29.2224815,13.9351444 29.1940741,13.9395148 C29.1285185,13.9504407 29.0695185,13.9810333 29.0083333,14.0072556 C28.9668148,14.024737 28.9274815,14.0378481 28.8925185,14.0618852 C28.8794074,14.0706259 28.8662963,14.0728111 28.8531852,14.0793667 C28.816037,14.1077741 28.792,14.1492926 28.7614074,14.1820704 C28.733,14.2104778 28.698037,14.2279593 28.674,14.260737 L27.5988889,15.7444778 L29.3382963,14.7414778 L31.1017407,15.7597741 L31.1017407,15.7597741 Z" fill="#4A82C3"></path>
                                <path d="M41.9817778,22.8876296 L42.1871852,22.8351852 C42.6242222,22.7215556 42.8886296,22.2735926 42.7728148,21.8365556 C42.6613704,21.3951481 42.2112222,21.1351111 41.7741852,21.2465556 L40.9678519,21.4563333 L41.9817778,22.0397778 L41.9817778,22.8876296 Z" fill="#4A82C3"></path>
                                <path d="M16.6972185,34.7357037 L15.9586259,36.2871852 C15.9477,36.309037 15.9498852,36.3308889 15.9411444,36.3549259 C15.9214778,36.4095556 15.9083667,36.4598148 15.8996259,36.5166296 C15.8908852,36.5712593 15.8865148,36.6237037 15.8887,36.6783333 C15.8908852,36.7023704 15.8821444,36.7264074 15.8843296,36.7526296 C15.8865148,36.7679259 15.9039963,36.7766667 15.9061815,36.7897778 C15.9389593,36.9602222 16.0176259,37.1088148 16.1465519,37.229 C16.1640333,37.2464815 16.1858852,37.2574074 16.207737,37.2748889 C16.2514407,37.312037 16.2907741,37.3535556 16.3432185,37.3797778 C16.4590333,37.4322222 16.5792185,37.4584444 16.6972185,37.4584444 C16.7343667,37.4584444 16.7715148,37.4562593 16.8108481,37.4497037 L17.8509963,37.3054815 L16.6972185,36.6368148 L16.6972185,34.7357037 L16.6972185,34.7357037 Z" fill="#4A82C3"></path>
                                <path d="M17.7120185,21.4554593 L16.9035,21.2456815 C16.4599074,21.1364222 16.0163148,21.3964593 15.9048704,21.8356815 C15.7912407,22.2727185 16.053463,22.7206815 16.4905,22.8343111 L16.6980926,22.8867556 L16.6980926,22.0410889 L17.7120185,21.4554593 L17.7120185,21.4554593 Z" fill="#4A82C3"></path>
                                <path d="M28.521037,43.4655185 L28.5188519,43.9331481 C28.5166667,44.3854815 28.8815926,44.7547778 29.3339259,44.756963 L29.3382963,44.756963 C29.7884444,44.756963 30.1555556,44.392037 30.1577407,43.9418889 L30.1599259,43.4611481 L29.3382963,43.9375185 L28.521037,43.4655185 L28.521037,43.4655185 Z" fill="#4A82C3"></path>
                                <path d="M42.7881111,36.6783333 C42.7902963,36.6258889 42.7859259,36.5734444 42.7793704,36.521 C42.7706296,36.462 42.7575185,36.4073704 42.7378519,36.3549259 C42.7291111,36.3330741 42.7312963,36.309037 42.7225556,36.2893704 L41.9817778,34.7138519 L41.9817778,36.6346296 L40.828,37.3011111 L41.865963,37.4497037 C41.9052963,37.4540741 41.9424444,37.4562593 41.9817778,37.4562593 C42.0975926,37.4562593 42.2155926,37.4322222 42.3292222,37.3797778 C42.3838519,37.3535556 42.4253704,37.3098519 42.4712593,37.2727037 C42.4931111,37.2574074 42.5127778,37.2486667 42.5324444,37.229 C42.6591852,37.1088148 42.740037,36.958037 42.7706296,36.7897778 C42.775,36.7744815 42.7902963,36.7657407 42.7924815,36.7504444 C42.7946667,36.7242222 42.7881111,36.7023704 42.7881111,36.6783333" fill="#4A82C3"></path>
                                <polygon fill="#FFFFFF" points="30.7018519 34.2243704 35.7998889 25.4093333 40.5941852 35.6163333"></polygon>
                                <polygon fill="#FFFFFF" points="29.3841852 33.2301111 24.3145556 24.4631481 34.4538148 24.4631481"></polygon>
                                <polygon fill="#FFFFFF" points="18.0918037 35.6163333 22.9619259 25.4005926 28.0643333 34.2243704"></polygon>
                                <polygon fill="#FFFFFF" points="29.3426667 16.1316926 34.254963 22.8242593 24.4981111 22.8242593"></polygon>
                                <path d="M27.5420741,15.3059111 C27.5420741,16.3220222 28.3680741,17.1480222 29.3841852,17.1480222 C30.4002963,17.1480222 31.2262963,16.3220222 31.2262963,15.3059111 C31.2262963,14.2898 30.4002963,13.4638 29.3841852,13.4638 C28.3680741,13.4638 27.5420741,14.2898 27.5420741,15.3059111 Z" fill="#F24A16"></path>
                                <path d="M29.3841852,45.3054444 C28.3680741,45.3054444 27.5420741,44.4794444 27.5420741,43.4633333 C27.5420741,42.4472222 28.3680741,41.6212222 29.3841852,41.6212222 C30.4002963,41.6212222 31.2262963,42.4472222 31.2262963,43.4633333 C31.2262963,44.4794444 30.4002963,45.3054444 29.3841852,45.3054444" fill="#F24A16"></path>
                                <path d="M16.6972185,20.1985407 C15.6811074,20.1985407 14.8551074,21.0245407 14.8551074,22.0406519 C14.8551074,23.056763 15.6811074,23.882763 16.6972185,23.882763 C17.7133296,23.882763 18.5393296,23.056763 18.5393296,22.0406519 C18.5393296,21.0245407 17.7133296,20.1985407 16.6972185,20.1985407" fill="#F24A16"></path>
                                <path d="M16.6972185,35.341 C15.9804778,35.341 15.4014037,35.9222593 15.4014037,36.639 C15.4014037,37.3535556 15.9804778,37.9348148 16.6972185,37.9348148 C17.4139593,37.9348148 17.9930333,37.3535556 17.9930333,36.639 C17.9930333,35.9222593 17.4139593,35.341 16.6972185,35.341" fill="#F24A16"></path>
                                <path d="M16.6972185,38.4811111 C15.6811074,38.4811111 14.8551074,37.6551111 14.8551074,36.639 C14.8551074,35.6228889 15.6811074,34.7968889 16.6972185,34.7968889 C17.7133296,34.7968889 18.5393296,35.6228889 18.5393296,36.639 C18.5393296,37.6551111 17.7133296,38.4811111 16.6972185,38.4811111" fill="#F24A16"></path>
                                <path d="M41.9817778,23.8818889 C40.9656667,23.8818889 40.1396667,23.0558889 40.1396667,22.0397778 C40.1396667,21.0236667 40.9656667,20.1976667 41.9817778,20.1976667 C42.9978889,20.1976667 43.8238889,21.0236667 43.8238889,22.0397778 C43.8238889,23.0558889 42.9978889,23.8818889 41.9817778,23.8818889" fill="#F24A16"></path>
                                <path d="M41.9817778,38.4811111 C40.9656667,38.4811111 40.1396667,37.6551111 40.1396667,36.639 C40.1396667,35.6228889 40.9656667,34.7947037 41.9817778,34.7947037 C42.9978889,34.7947037 43.8238889,35.6228889 43.8238889,36.639 C43.8238889,37.6551111 42.9978889,38.4811111 41.9817778,38.4811111" fill="#F24A16"></path>
                            </g>
                        </g>
                    </g>
                    <path d="M178.552,29.032 C178.552,30.7680087 178.230003,32.2659937 177.586,33.526 C176.941997,34.7860063 176.092672,35.8219959 175.038,36.634 C173.983328,37.4460041 172.79334,38.0433314 171.468,38.426 C170.14266,38.8086686 168.798673,39 167.436,39 L160.044,39 L160.044,19.176 L167.212,19.176 C168.612007,19.176 169.993327,19.3393317 171.356,19.666 C172.718673,19.9926683 173.931995,20.5339962 174.996,21.29 C176.060005,22.0460038 176.918663,23.0586603 177.572,24.328 C178.225337,25.5973397 178.552,27.165324 178.552,29.032 Z M173.568,29.032 C173.568,27.9119944 173.386002,26.983337 173.022,26.246 C172.657998,25.508663 172.17267,24.9206689 171.566,24.482 C170.95933,24.0433311 170.268671,23.7306676 169.494,23.544 C168.719329,23.3573324 167.921337,23.264 167.1,23.264 L164.72,23.264 L164.72,34.856 L166.988,34.856 C167.846671,34.856 168.672663,34.758001 169.466,34.562 C170.259337,34.365999 170.95933,34.0440022 171.566,33.596 C172.17267,33.1479978 172.657998,32.5506704 173.022,31.804 C173.386002,31.0573296 173.568,30.1333388 173.568,29.032 Z M190.096,32.924 L189.508,32.924 C189.003997,32.924 188.495336,32.9473331 187.982,32.994 C187.468664,33.0406669 187.011335,33.1293327 186.61,33.26 C186.208665,33.3906673 185.877335,33.5819987 185.616,33.834 C185.354665,34.0860013 185.224,34.4173313 185.224,34.828 C185.224,35.0893346 185.284666,35.3133324 185.406,35.5 C185.527334,35.6866676 185.681332,35.8359994 185.868,35.948 C186.054668,36.0600006 186.269332,36.1393331 186.512,36.186 C186.754668,36.2326669 186.987999,36.256 187.212,36.256 C188.145338,36.256 188.859331,35.9993359 189.354,35.486 C189.848669,34.9726641 190.096,34.2773377 190.096,33.4 L190.096,32.924 Z M181.668,26.96 C182.489337,26.1759961 183.445995,25.588002 184.538,25.196 C185.630005,24.803998 186.745328,24.608 187.884,24.608 C189.060006,24.608 190.053996,24.7526652 190.866,25.042 C191.678004,25.3313348 192.335997,25.7793303 192.84,26.386 C193.344003,26.9926697 193.712666,27.7579954 193.946,28.682 C194.179335,29.6060046 194.296,30.7026603 194.296,31.972 L194.296,39 L190.096,39 L190.096,37.516 L190.012,37.516 C189.657332,38.0946696 189.12067,38.5426651 188.402,38.86 C187.68333,39.1773349 186.904004,39.336 186.064,39.336 C185.503997,39.336 184.925336,39.2613341 184.328,39.112 C183.730664,38.9626659 183.184669,38.7200017 182.69,38.384 C182.195331,38.0479983 181.789335,37.6000028 181.472,37.04 C181.154665,36.4799972 180.996,35.7893374 180.996,34.968 C180.996,33.959995 181.271331,33.1480031 181.822,32.532 C182.372669,31.9159969 183.081996,31.4400017 183.95,31.104 C184.818004,30.7679983 185.783995,30.5440006 186.848,30.432 C187.912005,30.3199994 188.947995,30.264 189.956,30.264 L189.956,30.04 C189.956,29.3493299 189.713336,28.8406683 189.228,28.514 C188.742664,28.1873317 188.145337,28.024 187.436,28.024 C186.782663,28.024 186.15267,28.1639986 185.546,28.444 C184.93933,28.7240014 184.421335,29.059998 183.992,29.452 L181.668,26.96 Z M202.816,28.5 L202.816,33.82 C202.816,34.4733366 202.941999,34.9633317 203.194,35.29 C203.446001,35.6166683 203.898663,35.78 204.552,35.78 C204.776001,35.78 205.013999,35.7613335 205.266,35.724 C205.518001,35.6866665 205.727999,35.630667 205.896,35.556 L205.952,38.916 C205.634665,39.0280006 205.233336,39.1259996 204.748,39.21 C204.262664,39.2940004 203.777336,39.336 203.292,39.336 C202.358662,39.336 201.57467,39.2193345 200.94,38.986 C200.30533,38.7526655 199.796669,38.4166689 199.414,37.978 C199.031331,37.5393311 198.756001,37.0166697 198.588,36.41 C198.419999,35.8033303 198.336,35.1266704 198.336,34.38 L198.336,28.5 L196.096,28.5 L196.096,25.056 L198.308,25.056 L198.308,21.388 L202.816,21.388 L202.816,25.056 L206.092,25.056 L206.092,28.5 L202.816,28.5 Z M216.88,32.924 L216.292,32.924 C215.787997,32.924 215.279336,32.9473331 214.766,32.994 C214.252664,33.0406669 213.795335,33.1293327 213.394,33.26 C212.992665,33.3906673 212.661335,33.5819987 212.4,33.834 C212.138665,34.0860013 212.008,34.4173313 212.008,34.828 C212.008,35.0893346 212.068666,35.3133324 212.19,35.5 C212.311334,35.6866676 212.465332,35.8359994 212.652,35.948 C212.838668,36.0600006 213.053332,36.1393331 213.296,36.186 C213.538668,36.2326669 213.771999,36.256 213.996,36.256 C214.929338,36.256 215.643331,35.9993359 216.138,35.486 C216.632669,34.9726641 216.88,34.2773377 216.88,33.4 L216.88,32.924 Z M208.452,26.96 C209.273337,26.1759961 210.229995,25.588002 211.322,25.196 C212.414005,24.803998 213.529328,24.608 214.668,24.608 C215.844006,24.608 216.837996,24.7526652 217.65,25.042 C218.462004,25.3313348 219.119997,25.7793303 219.624,26.386 C220.128003,26.9926697 220.496666,27.7579954 220.73,28.682 C220.963335,29.6060046 221.08,30.7026603 221.08,31.972 L221.08,39 L216.88,39 L216.88,37.516 L216.796,37.516 C216.441332,38.0946696 215.90467,38.5426651 215.186,38.86 C214.46733,39.1773349 213.688004,39.336 212.848,39.336 C212.287997,39.336 211.709336,39.2613341 211.112,39.112 C210.514664,38.9626659 209.968669,38.7200017 209.474,38.384 C208.979331,38.0479983 208.573335,37.6000028 208.256,37.04 C207.938665,36.4799972 207.78,35.7893374 207.78,34.968 C207.78,33.959995 208.055331,33.1480031 208.606,32.532 C209.156669,31.9159969 209.865996,31.4400017 210.734,31.104 C211.602004,30.7679983 212.567995,30.5440006 213.632,30.432 C214.696005,30.3199994 215.731995,30.264 216.74,30.264 L216.74,30.04 C216.74,29.3493299 216.497336,28.8406683 216.012,28.514 C215.526664,28.1873317 214.929337,28.024 214.22,28.024 C213.566663,28.024 212.93667,28.1639986 212.33,28.444 C211.72333,28.7240014 211.205335,29.059998 210.776,29.452 L208.452,26.96 Z M232.548,39 L232.548,19.176 L245.876,19.176 L245.876,23.236 L237.168,23.236 L237.168,26.96 L245.4,26.96 L245.4,30.796 L237.168,30.796 L237.168,34.912 L246.38,34.912 L246.38,39 L232.548,39 Z M259.296,29.564 C259.034665,29.2279983 258.680002,28.9573344 258.232,28.752 C257.783998,28.5466656 257.326669,28.444 256.86,28.444 C256.374664,28.444 255.936002,28.541999 255.544,28.738 C255.151998,28.934001 254.816001,29.1953317 254.536,29.522 C254.255999,29.8486683 254.036667,30.2266645 253.878,30.656 C253.719333,31.0853355 253.64,31.5426642 253.64,32.028 C253.64,32.5133358 253.714666,32.9706645 253.864,33.4 C254.013334,33.8293355 254.232665,34.2073317 254.522,34.534 C254.811335,34.8606683 255.156665,35.1173324 255.558,35.304 C255.959335,35.4906676 256.411998,35.584 256.916,35.584 C257.382669,35.584 257.844664,35.4953342 258.302,35.318 C258.759336,35.1406658 259.127999,34.8840017 259.408,34.548 L261.956,37.656 C261.37733,38.2160028 260.630671,38.6546651 259.716,38.972 C258.801329,39.2893349 257.830672,39.448 256.804,39.448 C255.702661,39.448 254.676005,39.2800017 253.724,38.944 C252.771995,38.6079983 251.946004,38.1180032 251.246,37.474 C250.545997,36.8299968 249.995335,36.0506712 249.594,35.136 C249.192665,34.2213288 248.992,33.1853391 248.992,32.028 C248.992,30.8893276 249.192665,29.8626712 249.594,28.948 C249.995335,28.0333288 250.545997,27.2540032 251.246,26.61 C251.946004,25.9659968 252.771995,25.4713351 253.724,25.126 C254.676005,24.7806649 255.693328,24.608 256.776,24.608 C257.280003,24.608 257.779331,24.6546662 258.274,24.748 C258.768669,24.8413338 259.244664,24.9673325 259.702,25.126 C260.159336,25.2846675 260.579331,25.4806655 260.962,25.714 C261.344669,25.9473345 261.675999,26.2039986 261.956,26.484 L259.296,29.564 Z M278.96,31.972 C278.96,33.1106724 278.754669,34.1419954 278.344,35.066 C277.933331,35.9900046 277.373337,36.7739968 276.664,37.418 C275.954663,38.0620032 275.133338,38.5613316 274.2,38.916 C273.266662,39.2706684 272.268005,39.448 271.204,39.448 C270.158661,39.448 269.164671,39.2706684 268.222,38.916 C267.279329,38.5613316 266.458004,38.0620032 265.758,37.418 C265.057997,36.7739968 264.502669,35.9900046 264.092,35.066 C263.681331,34.1419954 263.476,33.1106724 263.476,31.972 C263.476,30.8333276 263.681331,29.8066712 264.092,28.892 C264.502669,27.9773288 265.057997,27.2026698 265.758,26.568 C266.458004,25.9333302 267.279329,25.4480017 268.222,25.112 C269.164671,24.7759983 270.158661,24.608 271.204,24.608 C272.268005,24.608 273.266662,24.7759983 274.2,25.112 C275.133338,25.4480017 275.954663,25.9333302 276.664,26.568 C277.373337,27.2026698 277.933331,27.9773288 278.344,28.892 C278.754669,29.8066712 278.96,30.8333276 278.96,31.972 Z M274.536,31.972 C274.536,31.5239978 274.461334,31.0853355 274.312,30.656 C274.162666,30.2266645 273.948001,29.8486683 273.668,29.522 C273.387999,29.1953317 273.042669,28.9293344 272.632,28.724 C272.221331,28.5186656 271.745336,28.416 271.204,28.416 C270.662664,28.416 270.186669,28.5186656 269.776,28.724 C269.365331,28.9293344 269.024668,29.1953317 268.754,29.522 C268.483332,29.8486683 268.278001,30.2266645 268.138,30.656 C267.997999,31.0853355 267.928,31.5239978 267.928,31.972 C267.928,32.4200022 267.997999,32.8586645 268.138,33.288 C268.278001,33.7173355 268.487999,34.1046649 268.768,34.45 C269.048001,34.7953351 269.393331,35.0706656 269.804,35.276 C270.214669,35.4813344 270.690664,35.584 271.232,35.584 C271.773336,35.584 272.249331,35.4813344 272.66,35.276 C273.070669,35.0706656 273.415999,34.7953351 273.696,34.45 C273.976001,34.1046649 274.185999,33.7173355 274.326,33.288 C274.466001,32.8586645 274.536,32.4200022 274.536,31.972 Z M290.476,29.172 C290.102665,28.8173316 289.664003,28.5186679 289.16,28.276 C288.655998,28.0333321 288.124003,27.912 287.564,27.912 C287.134665,27.912 286.738002,27.9959992 286.374,28.164 C286.009998,28.3320008 285.828,28.6213313 285.828,29.032 C285.828,29.424002 286.028665,29.7039992 286.43,29.872 C286.831335,30.0400008 287.479996,30.2266656 288.376,30.432 C288.898669,30.5440006 289.425997,30.7026656 289.958,30.908 C290.490003,31.1133344 290.970665,31.3839983 291.4,31.72 C291.829336,32.0560017 292.174665,32.4666642 292.436,32.952 C292.697335,33.4373358 292.828,34.0159966 292.828,34.688 C292.828,35.5653377 292.650668,36.3073303 292.296,36.914 C291.941332,37.5206697 291.479336,38.0106648 290.91,38.384 C290.340664,38.7573352 289.701337,39.0279992 288.992,39.196 C288.282663,39.3640008 287.573337,39.448 286.864,39.448 C285.725328,39.448 284.610006,39.2660018 283.518,38.902 C282.425995,38.5379982 281.516004,38.0013369 280.788,37.292 L283.364,34.576 C283.774669,35.0240022 284.278664,35.3973318 284.876,35.696 C285.473336,35.9946682 286.107997,36.144 286.78,36.144 C287.153335,36.144 287.521998,36.0553342 287.886,35.878 C288.250002,35.7006658 288.432,35.3880022 288.432,34.94 C288.432,34.5106645 288.208002,34.1933344 287.76,33.988 C287.311998,33.7826656 286.612005,33.5680011 285.66,33.344 C285.174664,33.2319994 284.689336,33.0826676 284.204,32.896 C283.718664,32.7093324 283.284669,32.4573349 282.902,32.14 C282.519331,31.8226651 282.206668,31.430669 281.964,30.964 C281.721332,30.497331 281.6,29.9373366 281.6,29.284 C281.6,28.4439958 281.777332,27.7300029 282.132,27.142 C282.486668,26.5539971 282.943997,26.0733352 283.504,25.7 C284.064003,25.3266648 284.684663,25.0513342 285.366,24.874 C286.047337,24.6966658 286.723997,24.608 287.396,24.608 C288.441339,24.608 289.463328,24.7713317 290.462,25.098 C291.460672,25.4246683 292.30533,25.9146634 292.996,26.568 L290.476,29.172 Z M303.756,41.1 C303.475999,41.8280036 303.163335,42.4766638 302.818,43.046 C302.472665,43.6153362 302.062002,44.1006647 301.586,44.502 C301.109998,44.9033353 300.550003,45.2066656 299.906,45.412 C299.261997,45.6173344 298.501338,45.72 297.624,45.72 C297.194665,45.72 296.751336,45.6920003 296.294,45.636 C295.836664,45.5799997 295.440002,45.5053338 295.104,45.412 L295.608,41.548 C295.832001,41.622667 296.079332,41.6833331 296.35,41.73 C296.620668,41.7766669 296.867999,41.8 297.092,41.8 C297.801337,41.8 298.314665,41.6366683 298.632,41.31 C298.949335,40.9833317 299.219999,40.5213363 299.444,39.924 L299.892,38.776 L294.068,25.056 L299.164,25.056 L302.272,34.016 L302.356,34.016 L305.128,25.056 L310,25.056 L303.756,41.1 Z M320.368,29.172 C319.994665,28.8173316 319.556003,28.5186679 319.052,28.276 C318.547998,28.0333321 318.016003,27.912 317.456,27.912 C317.026665,27.912 316.630002,27.9959992 316.266,28.164 C315.901998,28.3320008 315.72,28.6213313 315.72,29.032 C315.72,29.424002 315.920665,29.7039992 316.322,29.872 C316.723335,30.0400008 317.371996,30.2266656 318.268,30.432 C318.790669,30.5440006 319.317997,30.7026656 319.85,30.908 C320.382003,31.1133344 320.862665,31.3839983 321.292,31.72 C321.721336,32.0560017 322.066665,32.4666642 322.328,32.952 C322.589335,33.4373358 322.72,34.0159966 322.72,34.688 C322.72,35.5653377 322.542668,36.3073303 322.188,36.914 C321.833332,37.5206697 321.371336,38.0106648 320.802,38.384 C320.232664,38.7573352 319.593337,39.0279992 318.884,39.196 C318.174663,39.3640008 317.465337,39.448 316.756,39.448 C315.617328,39.448 314.502006,39.2660018 313.41,38.902 C312.317995,38.5379982 311.408004,38.0013369 310.68,37.292 L313.256,34.576 C313.666669,35.0240022 314.170664,35.3973318 314.768,35.696 C315.365336,35.9946682 315.999997,36.144 316.672,36.144 C317.045335,36.144 317.413998,36.0553342 317.778,35.878 C318.142002,35.7006658 318.324,35.3880022 318.324,34.94 C318.324,34.5106645 318.100002,34.1933344 317.652,33.988 C317.203998,33.7826656 316.504005,33.5680011 315.552,33.344 C315.066664,33.2319994 314.581336,33.0826676 314.096,32.896 C313.610664,32.7093324 313.176669,32.4573349 312.794,32.14 C312.411331,31.8226651 312.098668,31.430669 311.856,30.964 C311.613332,30.497331 311.492,29.9373366 311.492,29.284 C311.492,28.4439958 311.669332,27.7300029 312.024,27.142 C312.378668,26.5539971 312.835997,26.0733352 313.396,25.7 C313.956003,25.3266648 314.576663,25.0513342 315.258,24.874 C315.939337,24.6966658 316.615997,24.608 317.288,24.608 C318.333339,24.608 319.355328,24.7713317 320.354,25.098 C321.352672,25.4246683 322.19733,25.9146634 322.888,26.568 L320.368,29.172 Z M330.764,28.5 L330.764,33.82 C330.764,34.4733366 330.889999,34.9633317 331.142,35.29 C331.394001,35.6166683 331.846663,35.78 332.5,35.78 C332.724001,35.78 332.961999,35.7613335 333.214,35.724 C333.466001,35.6866665 333.675999,35.630667 333.844,35.556 L333.9,38.916 C333.582665,39.0280006 333.181336,39.1259996 332.696,39.21 C332.210664,39.2940004 331.725336,39.336 331.24,39.336 C330.306662,39.336 329.52267,39.2193345 328.888,38.986 C328.25333,38.7526655 327.744669,38.4166689 327.362,37.978 C326.979331,37.5393311 326.704001,37.0166697 326.536,36.41 C326.367999,35.8033303 326.284,35.1266704 326.284,34.38 L326.284,28.5 L324.044,28.5 L324.044,25.056 L326.256,25.056 L326.256,21.388 L330.764,21.388 L330.764,25.056 L334.04,25.056 L334.04,28.5 L330.764,28.5 Z M346.2,30.432 C346.2,29.7039964 345.971336,29.0786693 345.514,28.556 C345.056664,28.0333307 344.370671,27.772 343.456,27.772 C343.007998,27.772 342.597335,27.8419993 342.224,27.982 C341.850665,28.1220007 341.524001,28.3133321 341.244,28.556 C340.963999,28.7986679 340.740001,29.0833317 340.572,29.41 C340.403999,29.7366683 340.310667,30.0773316 340.292,30.432 L346.2,30.432 Z M350.428,32.196 L350.428,32.756 C350.428,32.9426676 350.418667,33.1199992 350.4,33.288 L340.292,33.288 C340.329334,33.680002 340.445999,34.0346651 340.642,34.352 C340.838001,34.6693349 341.089999,34.9446655 341.398,35.178 C341.706002,35.4113345 342.051331,35.5933327 342.434,35.724 C342.816669,35.8546673 343.213331,35.92 343.624,35.92 C344.352004,35.92 344.967998,35.784668 345.472,35.514 C345.976003,35.243332 346.386665,34.8933355 346.704,34.464 L349.896,36.48 C349.242663,37.4320048 348.379339,38.1646641 347.306,38.678 C346.232661,39.1913359 344.986674,39.448 343.568,39.448 C342.522662,39.448 341.533338,39.2846683 340.6,38.958 C339.666662,38.6313317 338.850004,38.1553365 338.15,37.53 C337.449997,36.9046635 336.899335,36.1346712 336.498,35.22 C336.096665,34.3053288 335.896,33.2600059 335.896,32.084 C335.896,30.9453276 336.091998,29.9140046 336.484,28.99 C336.876002,28.0659954 337.407997,27.2820032 338.08,26.638 C338.752003,25.9939968 339.545329,25.4946684 340.46,25.14 C341.374671,24.7853316 342.363995,24.608 343.428,24.608 C344.454672,24.608 345.397329,24.7806649 346.256,25.126 C347.114671,25.4713351 347.851997,25.9706634 348.468,26.624 C349.084003,27.2773366 349.564665,28.070662 349.91,29.004 C350.255335,29.937338 350.428,31.0013274 350.428,32.196 Z M371.492,39 L371.492,31.384 C371.492,30.991998 371.464,30.6140018 371.408,30.25 C371.352,29.8859982 371.249334,29.5733346 371.1,29.312 C370.950666,29.0506654 370.750001,28.8406675 370.498,28.682 C370.245999,28.5233325 369.914669,28.444 369.504,28.444 C369.111998,28.444 368.771335,28.5279992 368.482,28.696 C368.192665,28.8640008 367.950001,29.0879986 367.754,29.368 C367.557999,29.6480014 367.413334,29.9699982 367.32,30.334 C367.226666,30.6980018 367.18,31.075998 367.18,31.468 L367.18,39 L362.588,39 L362.588,31.048 C362.588,30.2453293 362.429335,29.610669 362.112,29.144 C361.794665,28.677331 361.29067,28.444 360.6,28.444 C359.871996,28.444 359.307335,28.7333304 358.906,29.312 C358.504665,29.8906696 358.304,30.5999958 358.304,31.44 L358.304,39 L353.684,39 L353.684,25.056 L358.136,25.056 L358.136,26.988 L358.192,26.988 C358.360001,26.6893318 358.569999,26.4000014 358.822,26.12 C359.074001,25.8399986 359.377332,25.5926677 359.732,25.378 C360.086669,25.1633323 360.483331,24.9906673 360.922,24.86 C361.360669,24.7293327 361.841331,24.664 362.364,24.664 C363.372005,24.664 364.225997,24.8693313 364.926,25.28 C365.626004,25.6906687 366.171998,26.2786628 366.564,27.044 C367.030669,26.3159964 367.627996,25.7373355 368.356,25.308 C369.084004,24.8786645 369.970662,24.664 371.016,24.664 C371.968005,24.664 372.765997,24.8366649 373.41,25.182 C374.054003,25.5273351 374.571998,25.9753306 374.964,26.526 C375.356002,27.0766694 375.640666,27.6926633 375.818,28.374 C375.995334,29.0553367 376.084,29.7226634 376.084,30.376 L376.084,39 L371.492,39 Z" id="DataEcosystem" fill="#000000" fill-rule="nonzero"></path>
                </g>
            </g>
        </g>
    </g>
</svg>